<svg xmlns="http://www.w3.org/2000/svg" width="407.319" height="504.707" viewBox="0 0 407.319 504.707"><defs><style>.a{fill:#fff;stroke:#fff;stroke-miterlimit:10;stroke-width:4px;}.b{fill:#e5e4e4;}.c{fill:#030504;}.d{fill:#f0b600;}.e{fill:#bdbdbd;}.f{fill:#5db998;}.g{fill:#eeb500;}.h{fill:#458a70;}.i{fill:#d9a712;}.j{fill:#5bb998;}.k{fill:#aeaeae;}.l{fill:#fdde82;}.m{fill:#3ebcd4;}.n{fill:#32a0ae;}.o{fill:none;stroke:#030504;stroke-linecap:round;stroke-linejoin:round;stroke-width:2px;}.p{fill:#161927;}</style></defs><g transform="matrix(0.978, -0.208, 0.208, 0.978, -63.519, 53.895)"><path class="a" d="M378.579,227.263c-.346-3.025-2.479-4.611-4.036-5.768a6.635,6.635,0,0,1-1.961-1.855,17.12,17.12,0,0,1-1.185-4.031c-.473-2.252-.962-4.58-2.585-6.2-4.2-4.2-10.524-4.295-11.121-4.29,2.564-6.721,5.4-14.776,5.321-17.37-.137-4.6-5.686-6.075-10.4-5.936a2.269,2.269,0,0,0-1.833,1.029l-19.077,29.276c-2.586.045-4.278.175-4.335.184-3.786.606-4.692,2.49-7.7,8.729l-.99,2.05a19.983,19.983,0,0,0-1.367,3.98,15.125,15.125,0,0,0-5.2,6.607c-15.446,41.739-24.256,54.15-28.019,59.449a13.176,13.176,0,0,0-2.458,8.84,8.609,8.609,0,0,0,1.225,3.37c-.279.269-.563.53-.86.777a27.726,27.726,0,0,1-8.272,5.038l3.493-16.693a2.824,2.824,0,0,0-2.21-3.353c-2.874-2.847-9.059-5.067-16.977-6.778a20.761,20.761,0,0,0,7.64-8.187c3.655-1.287,8.087-3.153,10.223-5.236,4.765-4.644,6.559-28.156,6.674-36.194a28.426,28.426,0,0,0-1.643-10.613c10.557-8.522,35.031-29.092,35.4-36.864a2.82,2.82,0,0,0-.242-1.287,270.1,270.1,0,0,0-13.17-26.318,7.3,7.3,0,0,0,1.493-2.711c.894-2.974.04-6.5-2.538-10.476-20.863-36.359-58.717-55.69-61.927-55.69a7.935,7.935,0,0,0-4.948,2.29,168.646,168.646,0,0,0-27.764-11.347,3.4,3.4,0,0,0-.109-1.266,12.147,12.147,0,0,0-9.718-8.62,56.1,56.1,0,0,1,4.436-25.873,9.11,9.11,0,1,0-4.24-1.639,60.866,60.866,0,0,0-4.731,27.659,12.144,12.144,0,0,0-8.988,8.473,3.394,3.394,0,0,0-.109,1.268,163.4,163.4,0,0,0-47.7,23.634,8.668,8.668,0,0,0-8.284-.6c-3.448,1.724-42.406,41.193-52.024,66.966a3.066,3.066,0,0,0-.1.3c-1.07,4.283-1.146,7.783-.255,10.465-3.563,4.427-3.008,10.6-.616,15.188,2.029,3.892,14.1,16.374,34.309,29.617a32,32,0,0,0-.707,7.444c.116,8.038,1.909,31.549,6.673,36.194,2.137,2.083,6.569,3.95,10.224,5.236a20.766,20.766,0,0,0,7.648,8.191c-7.909,1.711-14.084,3.929-16.955,6.774a2.824,2.824,0,0,0-2.211,3.353l4.718,22.545a2.271,2.271,0,0,0-.345.415L104.22,339.2c-4.822-.553-8.389,2.449-10.854,5.091-.052.055-.1.113-.15.173-24.487,30.877-30.621,56.079-31.6,60.817a8.788,8.788,0,0,0,1.847,7.083c.025.034.056.067.081.1-1.2,5.14-4.328,21.726,2.425,31.63,7.8,11.44,21.953,14.837,22.552,14.977a2.34,2.34,0,0,0,.513.058,2.263,2.263,0,0,0,1.112-.291,26.517,26.517,0,0,0,7.092-6.015,2.274,2.274,0,0,0,.467-1.512c-.23-4.067-.429-7.73-.6-11.014a8.772,8.772,0,0,0,5.521,4.51,16.847,16.847,0,0,0,5.105.749c2.486,0,4.833-.492,6.068-1.419,2.733-2.05,2.668-3.853,2.452-9.822l-.068-1.923c-.153-4.6-3.014-10.6-5.477-14.958a13.8,13.8,0,0,0,1.108-3.943c3.212-37.322,7.582-49.338,9.449-54.468v0a11.525,11.525,0,0,0,.024-8.026,5.774,5.774,0,0,0-1.035-1.7c1.194-2.284,2.419-4.59,3.6-6.78l12.816,61.239a32.159,32.159,0,0,0,13.971,20.324l3.435,16.413a39.193,39.193,0,0,0,38.2,31.031h6.479a39.191,39.191,0,0,0,38.2-31.031l3.436-16.413a32.154,32.154,0,0,0,13.97-20.324l14.573-69.633c4.926-1.4,16.889-5.493,26.9-14.4a11.451,11.451,0,0,0,5.519,1.439c3.538,0,6.776-1.6,9.322-3.167.065-.04.127-.083.189-.127,37.634-27.539,52.528-54.338,55.132-59.431a8.333,8.333,0,0,0,.583-1.485C372.481,249.191,379.732,237.373,378.579,227.263Z"/><path class="b" d="M352.684,184.08s7.942-.235,8.06,3.736-8.895,25.886-8.895,25.886l-10.068,6.964L331.6,216.433Z"/><path class="c" d="M341.781,222.935a2.274,2.274,0,0,1-.87-.174l-10.18-4.233a2.269,2.269,0,0,1-1.03-3.334l21.082-32.353a2.27,2.27,0,0,1,1.834-1.029c4.709-.139,10.259,1.331,10.395,5.936.125,4.241-7.529,23.083-9.065,26.817a2.265,2.265,0,0,1-.808,1l-10.067,6.965A2.265,2.265,0,0,1,341.781,222.935Zm-6.789-7.549,6.517,2.71,8.5-5.878c4.258-10.406,8.534-22.194,8.471-24.335-.021-.705-2.206-1.388-4.573-1.517Z"/><path class="b" d="M357.843,263.736s20.245-20.748,18.481-36.215c-.4-3.521-4.418-4.19-5.767-6.858-1.632-3.226-1.321-7.624-3.35-9.651-3.661-3.66-9.5-3.626-9.5-3.626a28.814,28.814,0,0,0-9.722,2.147c-12.89,28.232-15.146,30.79-17.665,32.437S357.843,263.736,357.843,263.736Z"/><path class="c" d="M357.842,266.005a2.269,2.269,0,0,1-1.261-.383C327.88,246.4,327.9,243.484,327.9,242.24a2.6,2.6,0,0,1,1.178-2.169c2.06-1.348,4.474-4.394,16.842-31.48a2.264,2.264,0,0,1,1.118-1.119,30.947,30.947,0,0,1,10.6-2.354c.369-.008,6.884.009,11.166,4.289,1.623,1.622,2.112,3.95,2.585,6.2a17.12,17.12,0,0,0,1.185,4.031,6.635,6.635,0,0,0,1.961,1.855c1.557,1.157,3.69,2.743,4.036,5.768,1.864,16.351-18.254,37.179-19.111,38.057A2.267,2.267,0,0,1,357.842,266.005Zm-24.694-23.359c3.16,3.208,13.958,11.1,24.352,18.124,4.312-4.778,17.943-20.95,16.57-32.993-.117-1.02-.886-1.637-2.235-2.64a10.107,10.107,0,0,1-3.3-3.449,20.653,20.653,0,0,1-1.575-5.145c-.337-1.6-.686-3.259-1.354-3.926-2.9-2.9-7.806-2.962-7.88-2.962h0a27.673,27.673,0,0,0-8.037,1.62C339.048,234.538,335.682,240.257,333.148,242.646Z"/><path class="b" d="M105.295,413s8.378,12.073,8.624,19.465.493,8.378-1.478,9.856-11.827,1.972-13.552-3.7-6.9-16.016-6.9-16.016Z"/><path class="c" d="M107.735,445.558a16.843,16.843,0,0,1-5.105-.749c-3.074-1.005-5.118-2.914-5.912-5.52-1.649-5.417-6.707-15.56-6.758-15.662a2.269,2.269,0,0,1,.7-2.854l13.306-9.61a2.268,2.268,0,0,1,3.193.545c.357.516,8.762,12.715,9.027,20.686l.068,1.923c.216,5.969.281,7.772-2.452,9.822C112.568,445.066,110.221,445.558,107.735,445.558ZM94.869,423.331a126.246,126.246,0,0,1,6.19,14.637,3.942,3.942,0,0,0,2.639,2.407c2.887,1.092,6.609.612,7.407.117.747-.563.81-.609.615-6.011l-.068-1.937c-.156-4.652-4.313-12.157-6.947-16.317Z"/><path class="b" d="M66.117,411.524s-5.667,20.452,1.725,31.293,21.191,14.045,21.191,14.045a24.264,24.264,0,0,0,6.406-5.421c-1.478-26.118-1.478-32.278-.246-34.5S66.117,411.524,66.117,411.524Z"/><path class="c" d="M89.033,459.131a2.34,2.34,0,0,1-.513-.058c-.6-.14-14.752-3.537-22.552-14.977-7.894-11.578-2.28-32.3-2.038-33.178a2.26,2.26,0,0,1,2.425-1.651c29.147,3.082,30.256,5.215,30.852,6.362a2.55,2.55,0,0,1-.031,2.417c-1.045,1.883-.663,12.227.528,33.267a2.274,2.274,0,0,1-.467,1.512,26.517,26.517,0,0,1-7.092,6.015A2.26,2.26,0,0,1,89.033,459.131ZM67.857,413.995c-1.127,5.116-3.617,19.512,1.86,27.544,5.785,8.484,15.947,11.993,18.962,12.877a22.152,22.152,0,0,0,4.444-3.73c-1.25-22.211-1.389-29.481-.64-32.862C88.722,416.706,77.839,415.1,67.857,413.995Z"/><path class="b" d="M118.6,358.055c-2,5.5-6.406,17.987-9.61,55.194-.493,3.942-3.7,10.842-17,9.363S62.914,413,64.392,405.857s8.378-31.047,31.047-59.629c3.45-3.7,7.146-5.914,12.567-2.711s10.1,6.9,10.6,8.378A8.649,8.649,0,0,1,118.6,358.055Z"/><path class="c" d="M95.413,425.648a33.782,33.782,0,0,1-3.737-.217c-9.873-1.1-23.118-6.048-28.214-13.066a8.788,8.788,0,0,1-1.847-7.083c.98-4.738,7.114-29.94,31.6-60.817.048-.06.1-.118.15-.173,3.285-3.52,8.525-7.681,16.083-3.216,1.774,1.049,10.687,6.455,11.842,9.921a11.528,11.528,0,0,1-.024,8.027h0c-1.867,5.13-6.238,17.146-9.449,54.468C111.05,419.645,106.305,425.648,95.413,425.648Zm2.175-77.567C73.959,377.91,68.1,401.919,67.17,406.432a3.454,3.454,0,0,0,.882,2.6c3.454,4.757,14.56,9.685,24.251,10.762,11.574,1.279,13.561-4.394,13.874-6.9,3.265-37.957,7.816-50.468,9.759-55.81h0a5.748,5.748,0,0,0,.024-4.144c-.607-.866-3.931-3.753-9.4-6.984C103.178,343.957,100.985,344.469,97.588,348.081Zm21.013,9.974h0Zm-2.6-5.046Z"/><path class="b" d="M120.079,318.631l-15.769,24.64,13.059,6.653s10.1-19.466,12.074-21.437Z"/><path class="c" d="M117.367,352.192a2.248,2.248,0,0,1-1.028-.247l-13.06-6.653a2.27,2.27,0,0,1-.881-3.245l15.77-24.639a2.269,2.269,0,0,1,3.556-.34l9.364,9.856a2.27,2.27,0,0,1-.041,3.168c-1.149,1.214-6.834,11.57-11.664,20.876A2.268,2.268,0,0,1,117.367,352.192Zm-9.8-9.807,8.827,4.5c2.591-4.954,7.463-14.123,10.108-18.193l-6.076-6.394Z"/><path class="c" d="M119.093,343.42a1.128,1.128,0,0,1-.381-.066,33.664,33.664,0,0,1-9.994-6.146,1.135,1.135,0,0,1,1.533-1.673,31.862,31.862,0,0,0,9.223,5.683,1.134,1.134,0,0,1-.381,2.2Z"/><path class="d" d="M72.372,383.212a73.113,73.113,0,0,0,38.411,12.539c-.621,5.13-1.225,10.921-1.792,17.5-.493,3.942-3.7,10.842-17,9.363S62.914,413,64.392,405.857A110.772,110.772,0,0,1,72.372,383.212Z"/><path class="c" d="M95.395,425.079a33.023,33.023,0,0,1-3.656-.212c-9.89-1.1-23-6.2-27.818-12.835A8.243,8.243,0,0,1,62.17,405.4c.62-3,2.654-11.254,8.142-23.138a2.269,2.269,0,0,1,3.351-.914,70.881,70.881,0,0,0,37.212,12.138,2.269,2.269,0,0,1,2.16,2.54c-.65,5.37-1.251,11.23-1.783,17.42C110.517,419.329,105.934,425.079,95.395,425.079Zm-22.051-38.5a103.386,103.386,0,0,0-6.729,19.742,3.971,3.971,0,0,0,.978,3.048c3.6,4.951,14.652,9.881,24.647,10.992,12.082,1.34,14.167-4.72,14.5-7.389.451-5.257.959-10.338,1.507-15.087A75.823,75.823,0,0,1,73.344,386.575Z"/><path class="c" d="M122.79,337.506a1.128,1.128,0,0,1-.381-.066,33.66,33.66,0,0,1-9.995-6.146,1.135,1.135,0,0,1,1.533-1.673,31.857,31.857,0,0,0,9.224,5.683,1.134,1.134,0,0,1-.381,2.2Z"/><path class="b" d="M312.013,279.265s.8,7.524-6.406,23.655c-10.349,23.162-39.425,29.568-39.425,29.568l3.7-18.48s4.919,1.034,13.581-6.16,10.074-22.669,10.074-22.669Z"/><path class="c" d="M266.182,334.757a2.269,2.269,0,0,1-2.224-2.714l3.7-18.481a2.265,2.265,0,0,1,2.692-1.774,2.071,2.071,0,0,0,.238.008c.987,0,5-.36,11.424-5.693,7.823-6.5,9.251-20.987,9.266-21.133a2.273,2.273,0,0,1,1.567-1.953l18.481-5.913a2.268,2.268,0,0,1,2.947,1.921c.036.332.781,8.321-6.591,24.821-10.692,23.931-39.775,30.587-41.007,30.858A2.261,2.261,0,0,1,266.182,334.757Zm5.56-18.5L269.135,329.3c7.8-2.484,26.714-10.1,34.4-27.3,4.328-9.687,5.668-16.151,6.069-19.576l-14,4.478c-.613,4.251-2.978,16.284-10.7,22.7C278.824,314.647,274.3,315.978,271.742,316.261Z"/><path class="b" d="M195.512,384.151H166.747A17.518,17.518,0,0,0,149.6,405.257l7.252,34.652a36.186,36.186,0,0,0,35.42,28.775h6.479a36.187,36.187,0,0,0,35.42-28.775l7.252-34.652a17.518,17.518,0,0,0-17.146-21.106Z"/><path class="e" d="M194.378,469.894s34.093-10.343,31.136-42.868c14.821-4.338,11.088-3.7,11.088-3.7S239.38,469.888,194.378,469.894Z"/><path class="c" d="M198.752,471.52h-6.479a39.192,39.192,0,0,1-38.2-31.031l-7.252-34.652a20.355,20.355,0,0,1,19.923-24.523h57.532A20.356,20.356,0,0,1,244.2,405.837l-7.253,34.652A39.191,39.191,0,0,1,198.752,471.52Zm-32.005-84.533a14.683,14.683,0,0,0-14.371,17.689l7.253,34.652a33.493,33.493,0,0,0,32.644,26.519h6.479A33.493,33.493,0,0,0,231.4,439.328l7.252-34.652a14.681,14.681,0,0,0-14.369-17.689Z"/><path class="b" d="M195.512,293.867H116.571l22.876,109.3a29.284,29.284,0,0,0,28.663,23.285h54.8a29.284,29.284,0,0,0,28.663-23.285l22.876-109.3Z"/><path class="f" d="M117.936,299.337s45.2,8.362,54.933,9.286c2.446,23.4,5.194,61.052,1.791,64.455s-14.131,17.1-20.68,20.461a92.679,92.679,0,0,1-14.489,5.632Z"/><path class="e" d="M246.212,308.752s2.143,67.813-24.431,118.915c11.864-1.381,20.735-8.034,23.691-11.73s6.653-23.654,10.349-39.917,17.557-80.025,17.557-80.025S265.431,304.317,246.212,308.752Z"/><path class="g" d="M137.716,394.35c9.059-4.926,22.824-13.51,28.086-22.6,6.706-11.583,2.855-49.809,1.3-62.857l9.652.127s7.392,53.223-.739,67.268-36.566,26.883-36.566,26.883Z"/><path class="c" d="M139.446,404.306a1.133,1.133,0,0,1-1.113-.916l-1.731-8.822a1.136,1.136,0,0,1,.572-1.215c8.073-4.39,22.4-13.107,27.646-22.17,6.592-11.386,2.55-50.453,1.154-62.155a1.13,1.13,0,0,1,.283-.893,1.261,1.261,0,0,1,.859-.376l9.652.128a1.134,1.134,0,0,1,1.108.978c.3,2.189,7.351,53.774-.882,67.992-8.219,14.2-35.906,26.819-37.081,27.349A1.133,1.133,0,0,1,139.446,404.306Zm-.457-9.359,1.29,6.58c5.628-2.7,27.877-13.931,34.752-25.806,7.254-12.53,1.667-58.327.725-65.579l-7.378-.1c1.847,15.911,4.976,50.925-1.6,62.274C161.662,381.169,149,389.441,138.989,394.947Z"/><path class="f" d="M274.951,298.2s-45.2,8.361-54.933,9.285c-2.446,23.4-5.194,61.052-1.791,64.456s14.131,17.1,20.68,20.46a92.623,92.623,0,0,0,14.489,5.633Z"/><path class="h" d="M238.907,392.4a87.319,87.319,0,0,0,12.233,4.934c1.522-6.743,3.1-14.367,4.681-21.318,3.25-14.3,14.355-65.309,16.991-77.424l-3.506.642c-4.143,2.821-11.6,4.593-23.094,7.245,0,0,1.262,42.286-10.2,84A19.188,19.188,0,0,0,238.907,392.4Z"/><path class="g" d="M253.38,394.35c-9.059-4.926-22.825-13.51-28.087-22.6-6.705-11.583-2.854-49.809-1.3-62.857l-9.652.127s-7.393,53.223.739,67.268,36.566,26.883,36.566,26.883Z"/><path class="i" d="M249.968,402.38c.657-2.729,1.328-5.707,2.009-8.8a127.878,127.878,0,0,1-14.37-9.2q-1.2,4.843-2.621,9.734A159.581,159.581,0,0,0,249.968,402.38Z"/><path class="c" d="M222.915,429.294h-54.8a32.259,32.259,0,0,1-31.44-25.542l-22.875-109.3a2.837,2.837,0,0,1,2.777-3.417H274.454a2.837,2.837,0,0,1,2.776,3.417l-22.876,109.3A32.258,32.258,0,0,1,222.915,429.294ZM120.063,296.7l22.16,105.887a26.561,26.561,0,0,0,25.887,21.03h54.8a26.562,26.562,0,0,0,25.887-21.03L270.963,296.7Z"/><ellipse class="b" cx="79" cy="13.356" rx="79" ry="13.356" transform="translate(116.513 281.429)"/><path class="e" d="M217.383,300.621l29.568,2.957s18.85-.383,26.427-7.583c7.576-6.462-33.819-11.636-33.819-11.636Z"/><ellipse class="c" cx="43.094" cy="5.02" rx="43.094" ry="5.02" transform="translate(152.418 287.499)"/><path class="c" d="M195.512,300.374a280.65,280.65,0,0,1-30.8-1.489c-11.313-1.317-15.131-2.925-15.131-6.367s3.818-5.049,15.131-6.366a280.893,280.893,0,0,1,30.8-1.489,280.945,280.945,0,0,1,30.8,1.489c11.312,1.317,15.13,2.924,15.13,6.366s-3.818,5.05-15.13,6.367A280.663,280.663,0,0,1,195.512,300.374Zm-35.4-7.856c6.763,1.149,19.161,2.184,35.4,2.184s28.635-1.035,35.4-2.184c-6.762-1.148-19.16-2.182-35.4-2.182S166.879,291.37,160.116,292.518Zm76.278,1.495h0Z"/><path class="c" d="M195.512,310.409c-28.109,0-81.268-3.266-81.268-15.624S167.4,279.16,195.512,279.16s81.269,3.266,81.269,15.625S223.622,310.409,195.512,310.409Zm0-26.711c-20.979,0-40.683,1.378-55.482,3.88-17.642,2.982-21.248,6.443-21.248,7.207s3.606,4.224,21.248,7.207c14.8,2.5,34.5,3.879,55.482,3.879s40.684-1.378,55.483-3.879c17.642-2.983,21.249-6.444,21.249-7.207s-3.607-4.225-21.249-7.207C236.2,285.076,216.491,283.7,195.512,283.7Z"/><path class="j" d="M276.94,224.813s36.221-28.829,36.59-36.591a261.387,261.387,0,0,0-14.252-28.151l.208-.123s5.544-2.4,0-10.9c-20.329-35.482-57.659-54.331-59.507-54.331s-4.065,2.587-4.065,2.587l3.418,2.427a166.462,166.462,0,0,0-43.794-17.212c-25.356,6.136-45.453,16.657-61.436,28.977l.91-2.365s-2.957-2.218-5.914-.739-41.4,40.656-50.635,65.42c-1.109,4.435-1.109,8.131.369,10.349-4.805,4.065-2.957,10.472-1.478,13.305S90.29,212.986,112.836,227.4Z"/><path class="h" d="M261.735,205.342s22.915-1.478,17.741-17.741c10.349,1.478,27.351-2.218,19.219-12.566a17.957,17.957,0,0,0-13.918-11.586l13.549-6.71,10.225,19.035,3.845,10.374-6.8,9.831-16.263,13.8L275.78,221.6l-7.8-8.258Z"/><path class="c" d="M276.917,226.514a2.836,2.836,0,0,1-1.769-5.055c16.2-12.89,33.832-29.142,35.414-34.007a253.906,253.906,0,0,0-13.748-27.068,2.836,2.836,0,0,1,4.877-2.9,262.542,262.542,0,0,1,14.4,28.448,2.82,2.82,0,0,1,.242,1.287c-.4,8.393-28.924,31.723-37.658,38.674A2.817,2.817,0,0,1,276.917,226.514Z"/><path class="c" d="M300.2,205.25a2.261,2.261,0,0,1-1.455-.529c-10.821-9.047-25.057-17.409-44.8-26.316a2.269,2.269,0,0,1,1.866-4.136c20.13,9.081,34.7,17.65,45.846,26.971a2.27,2.27,0,0,1-1.457,4.01Z"/><path class="k" d="M269.506,216.458l4.757,3.037s5.651,3.184,5.481,15.165-2.575,31.043-5.817,34.2-14.394,6.231-14.394,6.231"/><path class="c" d="M259.533,277.933a2.837,2.837,0,0,1-.753-5.572c4.341-1.2,11.3-3.7,13.167-5.528,1.994-2.078,4.76-18.074,4.961-32.213.14-9.867-3.929-12.581-4.1-12.692l-4.827-3.079a2.837,2.837,0,1,1,3.054-4.782l4.715,3.01c1.056.634,7.015,4.786,6.832,17.622-.115,8.039-1.909,31.551-6.674,36.2-3.583,3.493-13.639,6.391-15.619,6.936A2.853,2.853,0,0,1,259.533,277.933Z"/><path class="h" d="M254.738,109.1s15.524,18.481,8.131,28.829c0,0-26.423,40.526-88.886,57.035a84.9,84.9,0,0,0,21.529-.609l85.1-28.336,12.567-5.174s13.306-2.218,6.283-12.936-29.2-37.33-35.851-40.287-17.741-13.306-17.741-13.306l-5.914-.739Z"/><path class="c" d="M189.3,199.5a2.837,2.837,0,0,1-.75-5.572c63.619-17.483,109.314-37.514,109.768-37.713h0a1.747,1.747,0,0,0,.694-1.026c.192-.746.2-2.482-1.924-5.735-.03-.045-.059-.092-.086-.138-18.614-32.492-52.14-50.849-57.161-52.823a7.651,7.651,0,0,0-1.8,1.514,2.836,2.836,0,0,1-4.308-3.691c.72-.84,3.3-3.579,6.22-3.579,3.21,0,41.064,19.331,61.927,55.69,2.578,3.978,3.432,7.5,2.538,10.476a7.3,7.3,0,0,1-3.831,4.509c-.441.195-46.519,20.393-110.539,37.985A2.8,2.8,0,0,1,189.3,199.5Z"/><path class="c" d="M112.808,229.1a2.825,2.825,0,0,1-1.525-.446C89.768,214.9,76.915,201.668,74.814,197.639c-2.694-5.162-3.071-12.355,2.161-16.782,21.987-18.6,57.854-32.748,89.5-45.227,32.3-12.738,62.811-24.769,70.26-38.249a2.837,2.837,0,0,1,4.966,2.743c-8.437,15.265-38.423,27.09-73.145,40.783-31.236,12.318-66.64,26.28-87.914,44.28-4,3.38-1.135,9.179-.795,9.829,1.174,2.252,12.311,14.677,34.494,28.859a2.836,2.836,0,0,1-1.53,5.226Z"/><path class="c" d="M78.809,185.858a2.832,2.832,0,0,1-2.362-1.263c-1.888-2.833-2.144-7.076-.762-12.609a3.066,3.066,0,0,1,.1-.3c9.618-25.773,48.576-65.242,52.025-66.966,3.575-1.785,7.265-.207,8.884,1.007a2.836,2.836,0,0,1-3.379,4.556,3.385,3.385,0,0,0-2.9-.522c-4.028,2.734-40.489,40.51-49.26,63.758-1.276,5.217-.415,7.285.017,7.934a2.836,2.836,0,0,1-2.358,4.409Z"/><path class="d" d="M195.512,170.833a13.113,13.113,0,1,1,13.114-13.113A13.128,13.128,0,0,1,195.512,170.833Z"/><path class="c" d="M195.512,146.875a10.844,10.844,0,1,1-10.844,10.845,10.845,10.845,0,0,1,10.844-10.845m0-4.538A15.382,15.382,0,1,0,210.9,157.72a15.4,15.4,0,0,0-15.383-15.383Z"/><ellipse class="l" cx="5.174" cy="5.914" rx="5.174" ry="5.914" transform="translate(185.253 149.758)"/><path class="k" d="M121.49,216.458l-4.758,3.037s-5.65,3.184-5.48,15.165,2.575,31.043,5.817,34.2,14.393,6.231,14.393,6.231"/><path class="c" d="M131.464,277.933a2.866,2.866,0,0,1-.755-.1c-1.979-.545-12.037-3.443-15.62-6.936-4.764-4.645-6.557-28.156-6.673-36.2-.182-12.837,5.777-16.988,6.833-17.622l4.714-3.01a2.837,2.837,0,0,1,3.053,4.782l-4.758,3.037c-.043.027-.088.054-.133.079-.109.074-4.177,2.788-4.036,12.655.2,14.139,2.967,30.135,4.963,32.216,1.873,1.826,8.826,4.331,13.164,5.525a2.837,2.837,0,0,1-.752,5.572Z"/><path class="b" d="M269.2,220.748c0-23.223-57.586-25.1-73.661-25.1h-.08c-16.075,0-73.661,1.879-73.661,25.1a200.062,200.062,0,0,0,0,28.672c1.134,15.883,6.04,25.419,6.04,25.419,7.565,16.539,56.333,19.978,67.621,19.985h.08c11.288-.007,60.056-3.446,67.62-19.985,0,0,4.907-9.536,6.041-25.419A200.059,200.059,0,0,0,269.2,220.748Z"/><path class="c" d="M195.54,297.661c-.687,0-60.722-.966-70.256-21.588-.478-.951-5.189-10.671-6.317-26.451a202.679,202.679,0,0,1-.007-29c.193-25.787,58.581-27.807,76.5-27.81,18,0,76.385,2.023,76.578,27.81a202.433,202.433,0,0,1-.006,29c-1.128,15.783-5.839,25.5-6.316,26.451C256.179,296.7,196.143,297.661,195.54,297.661Zm0-99.178c-7.264,0-25.767.373-42.367,3.785-13.019,2.676-28.537,8.055-28.537,18.48l-.011.25a199.171,199.171,0,0,0,0,28.22c1.081,15.129,5.688,24.232,5.734,24.323l.058.117c2.753,6.02,13.547,11.2,30.394,14.592a202.73,202.73,0,0,0,34.649,3.738,202.7,202.7,0,0,0,34.725-3.738c16.847-3.391,27.642-8.572,30.395-14.592l.057-.117c.043-.086,4.659-9.293,5.734-24.323a199.346,199.346,0,0,0,0-28.22l-.011-.25c0-10.425-15.518-15.8-28.537-18.48C221.225,198.856,202.722,198.484,195.537,198.483Z"/><path class="c" d="M167.572,139.722a2.261,2.261,0,0,1-1.135-.3c-17.581-10.2-29.226-19.135-36.65-28.133a2.269,2.269,0,1,1,3.5-2.887c7.069,8.569,18.325,17.178,35.424,27.093a2.269,2.269,0,0,1-1.14,4.232Z"/><path class="c" d="M313.505,189.357a2.256,2.256,0,0,1-1.552-.614A225.621,225.621,0,0,0,284.634,167.4a2.269,2.269,0,0,1,2.555-3.751,230.068,230.068,0,0,1,27.868,21.786,2.269,2.269,0,0,1-1.552,3.924Z"/><path class="d" d="M202.884,43.719a6.814,6.814,0,1,1,6.814-6.813A6.82,6.82,0,0,1,202.884,43.719Z"/><path class="c" d="M202.884,32.361a4.545,4.545,0,1,1-4.545,4.545,4.545,4.545,0,0,1,4.545-4.545m0-4.538a9.082,9.082,0,1,0,9.083,9.083,9.092,9.092,0,0,0-9.083-9.083Z"/><path class="c" d="M195.509,78.45a2.268,2.268,0,0,1-2.249-2c-1.912-15.851,2.188-27.582,4.8-33.164a2.27,2.27,0,0,1,4.111,1.926c-2.409,5.142-6.185,15.967-4.408,30.7a2.267,2.267,0,0,1-1.98,2.524A2.317,2.317,0,0,1,195.509,78.45Z"/><path class="d" d="M203.859,83.053a1.712,1.712,0,0,1-.479-.069c-2.706-.794-5.285-1.489-7.868-2.121-2.577.631-5.155,1.326-7.868,2.121a1.7,1.7,0,0,1-2.115-2.1,10.379,10.379,0,0,1,19.966,0,1.7,1.7,0,0,1-1.636,2.168Z"/><path class="c" d="M195.512,75.047a8.683,8.683,0,0,1,8.347,6.3q-4.078-1.2-8.347-2.239-4.275,1.035-8.347,2.239a8.683,8.683,0,0,1,8.347-6.3m0-3.4a12.134,12.134,0,0,0-11.62,8.775,3.4,3.4,0,0,0,4.231,4.2c2.547-.747,4.973-1.4,7.389-2,2.416.6,4.842,1.254,7.39,2a3.4,3.4,0,0,0,4.231-4.2,12.135,12.135,0,0,0-11.621-8.775Z"/><path class="c" d="M134.079,113.194a2.836,2.836,0,0,1-1.734-5.083,165.112,165.112,0,0,1,62.5-29.487,2.838,2.838,0,0,1,1.334,0,170.118,170.118,0,0,1,44.535,17.507,2.836,2.836,0,1,1-2.816,4.924A164.23,164.23,0,0,0,195.512,84.3a159.319,159.319,0,0,0-59.7,28.3A2.83,2.83,0,0,1,134.079,113.194Z"/><path class="c" d="M212.648,121.229a2.255,2.255,0,0,1-1.294-.406c-16.2-11.277-27.828-21.348-36.58-31.693a2.268,2.268,0,1,1,3.463-2.931c8.492,10.035,19.839,19.853,35.709,30.9a2.269,2.269,0,0,1-1.3,4.131Z"/><path class="m" d="M259.763,227.256c0-18.329-50.213-19.809-64.23-19.812h-.07c-14.017,0-64.231,1.483-64.231,19.812a143.074,143.074,0,0,0,0,22.63c.99,12.536,5.268,20.063,5.268,20.063,6.6,13.054,49.12,15.768,58.963,15.774h.07c9.843-.006,52.367-2.72,58.963-15.774,0,0,4.278-7.527,5.267-20.063A142.931,142.931,0,0,0,259.763,227.256Z"/><path class="c" d="M195.534,286.858c-.588,0-52.264-1-60.047-16.4-.154-.268-4.388-7.843-5.386-20.485a145.66,145.66,0,0,1,0-22.831c0-19.315,50.026-20.833,65.36-20.835,15.39,0,65.343,1.517,65.435,20.891a146.514,146.514,0,0,1,0,22.775c-1,12.642-5.231,20.217-5.412,20.534C247.726,285.862,196.051,286.858,195.534,286.858Zm0-78.279c-29.176,0-63.166,4.9-63.166,18.677a144.083,144.083,0,0,0,0,22.541c.955,12.1,5.08,19.52,5.122,19.593,5.855,11.582,44.544,15.19,57.979,15.2,13.5-.009,52.19-3.617,58.019-15.152.067-.12,4.193-7.538,5.148-19.64a143.307,143.307,0,0,0,0-22.431l-.005-.11C258.629,213.478,224.64,208.583,195.533,208.579Z"/><path class="n" d="M258.637,227.5c0-17.9-49.333-19.342-63.1-19.344h-.068c-13.772,0-63.105,1.447-63.105,19.344a138.806,138.806,0,0,0,0,22.1c.972,12.241,5.175,19.59,5.175,19.59,6.481,12.746,48.259,15.4,57.93,15.4h.068c9.67-.006,51.449-2.657,57.93-15.4,0,0,4.2-7.349,5.175-19.59A138.8,138.8,0,0,0,258.637,227.5Zm-2.246,25.157c-.919,11.575-4.893,18.525-4.893,18.525-6.129,12.054-46.823,14.56-55.968,14.565h-.065c-9.144-.005-49.838-2.511-55.967-14.565,0,0-3.974-6.95-4.893-18.525a148.851,148.851,0,0,1,0-22.035c0-16.924,47.838-18.291,60.86-18.293h.065c13.023,0,60.861,1.369,60.861,18.293A149.011,149.011,0,0,1,256.391,252.656Z"/><path class="c" d="M251.649,404.306a1.126,1.126,0,0,1-.466-.1c-1.176-.53-28.863-13.151-37.082-27.349-8.232-14.218-1.185-65.8-.88-67.992a1.133,1.133,0,0,1,1.108-.978l9.652-.128a1.08,1.08,0,0,1,.858.376,1.133,1.133,0,0,1,.284.893c-1.4,11.7-5.442,50.764,1.152,62.155,5.247,9.063,19.573,17.78,27.646,22.17a1.135,1.135,0,0,1,.572,1.215l-1.731,8.822a1.132,1.132,0,0,1-1.113.916ZM215.34,310.142c-.942,7.252-6.528,53.052.725,65.579,6.874,11.875,29.123,23.106,34.751,25.806l1.291-6.58c-10.011-5.506-22.673-13.778-27.795-22.628-6.573-11.353-3.442-46.365-1.593-62.274Z"/><path class="c" d="M362.28,244.82a2.266,2.266,0,0,1-1.362-.454c-.644-.482-6.352-4.825-8.493-8.574-2.409-4.212,2.528-12.462,4.763-15.813a2.267,2.267,0,0,1,1.915-1.01l10.1.123a2.269,2.269,0,0,1-.027,4.537h-.028l-8.848-.107c-2.649,4.249-4.517,8.922-3.939,10.019a26.477,26.477,0,0,0,5.264,5.577l2.624-4.591a2.258,2.258,0,0,1,1.137-.985l3.789-1.5a2.269,2.269,0,1,1,1.664,4.221l-3.046,1.2-3.547,6.207a2.263,2.263,0,0,1-1.51,1.1A2.177,2.177,0,0,1,362.28,244.82Z"/><path class="b" d="M319.017,249.269s-2.117-17.3,1.712-25.2,4.115-9.066,7-9.527c1.443-.231,30.853-1.6,30.853,9.159,0,11.828-18.48,2.218-17.741,8.132.872,6.973-2.545,14.707-2.545,14.707Z"/><path class="c" d="M319.018,251.538a2.269,2.269,0,0,1-2.253-1.993c-.09-.734-2.151-18.066,1.921-26.465l.99-2.05c3-6.239,3.909-8.123,7.7-8.729.208-.033,22.355-1.706,30.461,5.21a8.01,8.01,0,0,1,3.021,6.19,8.162,8.162,0,0,1-2.376,6.252c-2.948,2.751-7.7,2.424-11.525,2.156a26.427,26.427,0,0,0-3.806-.093c.729,7.408-2.627,15.108-2.774,15.441a2.265,2.265,0,0,1-1.757,1.329l-19.28,2.73A2.262,2.262,0,0,1,319.018,251.538Zm13.694-34.931a45.2,45.2,0,0,0-4.646.178c-1.312.21-1.421.228-4.3,6.213l-1,2.062c-2.511,5.177-2.224,15.853-1.734,21.632l15.636-2.214c.841-2.285,2.514-7.6,1.919-12.364a3.82,3.82,0,0,1,.965-3.236c1.626-1.718,4.446-1.522,7.711-1.3,2.94.2,6.607.46,8.115-.947.23-.215.933-.87.933-2.934a3.439,3.439,0,0,0-1.356-2.676C350.806,217.374,339.382,216.607,332.712,216.607Z"/><path class="b" d="M286.415,294.758c4.022-5.666,12.99-18.558,28.366-60.108,1.8-4.354,7.64-11.237,22.394-5.358s30.232,20.144,26.292,27.852-19.355,32.875-54.282,58.433c-5.109,3.142-10.034,4.515-15.227-.855s-9.383-11.072-9.482-12.918A10.27,10.27,0,0,1,286.415,294.758Z"/><path class="c" d="M301.349,321.16c-3.005,0-6.226-1.154-9.429-4.468-1.678-1.734-10.056-10.6-10.276-14.736a13.176,13.176,0,0,1,2.458-8.84h0c3.763-5.3,12.573-17.71,28.019-59.449,3.013-7.277,11.419-12.86,26.1-7.01,11,4.382,24.423,14.379,27.86,23.522,1.446,3.845.748,6.613-.093,8.256-2.6,5.093-17.5,31.892-55.132,59.43-.062.045-.124.088-.189.128C308.125,319.558,304.887,321.16,301.349,321.16ZM287.3,301.538c.338,1.123,3.235,5.564,8.7,11.212,3.425,3.544,6.365,3.672,11.606.469,36.529-26.756,50.839-52.477,53.338-57.365a4.588,4.588,0,0,0-.166-3.68c-2.541-6.76-13.6-15.844-24.652-20.248-13.274-5.291-17.518.9-18.723,3.81-15.668,42.342-24.781,55.181-28.672,60.664h0A7.4,7.4,0,0,0,287.3,301.538Zm.005.117h0Zm-.891-6.9h0Z"/><path class="d" d="M347.213,280.534a86.746,86.746,0,0,0-39.99-26.433c2.326-5.672,4.84-12.106,7.558-19.451,1.8-4.354,7.64-11.237,22.394-5.358s30.233,20.144,26.292,27.852C361.443,261.1,356.381,269.675,347.213,280.534Z"/><path class="c" d="M347.212,282.8h-.005a2.265,2.265,0,0,1-1.735-.813,84.526,84.526,0,0,0-38.939-25.728,2.271,2.271,0,0,1-1.41-3.022c2.438-5.945,4.972-12.465,7.53-19.377,4.41-10.642,15.988-10.416,25.362-6.678,12.413,4.945,24.51,15.133,27.539,23.193a9.381,9.381,0,0,1-.066,7.8c-1.649,3.224-6.56,12-16.542,23.821A2.272,2.272,0,0,1,347.212,282.8Zm-36.976-30.087a89.472,89.472,0,0,1,36.939,24.315c8.8-10.751,13.114-18.654,14.271-20.919a5.1,5.1,0,0,0-.139-4.137c-2.59-6.89-13.792-16.12-24.972-20.575-13.752-5.483-18.188,1.054-19.458,4.119C314.646,241.551,312.41,247.342,310.236,252.716Z"/><path class="c" d="M290.946,323.337a1.1,1.1,0,0,1-.422-.082c-10.524-4.217-11.043-10.568-11.059-10.837a1.134,1.134,0,0,1,1.061-1.2,1.148,1.148,0,0,1,1.2,1.05c.022.243.585,5.255,9.64,8.885a1.134,1.134,0,0,1-.422,2.187Z"/><path class="c" d="M282.983,326.934a1.127,1.127,0,0,1-.6-.172c-9.625-5.989-9.029-12.332-9-12.6a1.135,1.135,0,0,1,2.257.244c-.022.24-.342,5.274,7.941,10.429a1.135,1.135,0,0,1-.6,2.1Z"/><path class="c" d="M366.222,236.787a1.092,1.092,0,0,1-.275-.035c-10.816-2.7-8.492-13.2-8.468-13.309a1.134,1.134,0,0,1,2.21.514c-.082.359-1.811,8.44,6.807,10.6a1.134,1.134,0,0,1-.274,2.235Z"/><path class="o" d="M376.324,227.521"/><path class="c" d="M335.5,228.155a1.134,1.134,0,0,1-1.069-.755c-.1-.291-2.472-7.166,1.288-12.828a1.135,1.135,0,0,1,1.89,1.257c-3.14,4.726-1.06,10.753-1.039,10.813a1.134,1.134,0,0,1-1.07,1.513Z"/><path class="c" d="M371.642,234.323a1.157,1.157,0,0,1-.377-.064,1.137,1.137,0,0,1-.693-1.448,6.64,6.64,0,0,0-.113-5.386c-1.551-3.033-5.5-4.224-5.54-4.236a1.135,1.135,0,0,1,.633-2.18c.2.059,4.912,1.46,6.919,5.368a8.815,8.815,0,0,1,.242,7.189A1.139,1.139,0,0,1,371.642,234.323Z"/><path class="c" d="M363.018,221.263a1.158,1.158,0,0,1-.377-.064,1.137,1.137,0,0,1-.693-1.448,6.634,6.634,0,0,0-.118-5.4c-1.567-3.046-5.494-4.213-5.534-4.224a1.135,1.135,0,1,1,.631-2.18c.2.058,4.912,1.46,6.92,5.366a8.807,8.807,0,0,1,.242,7.189A1.136,1.136,0,0,1,363.018,221.263Z"/><path class="c" d="M356.367,199.579a1.131,1.131,0,0,1-.9-.443c-1.659-2.155-7.72-1.468-9.713-1.058a1.134,1.134,0,0,1-.459-2.222c.93-.191,9.155-1.763,11.971,1.9a1.134,1.134,0,0,1-.9,1.825Z"/><path class="p" d="M195.512,274.691a23.8,23.8,0,0,1-8.912-1.6,1.7,1.7,0,0,1,1.29-3.149,22.322,22.322,0,0,0,15.246,0,1.7,1.7,0,1,1,1.289,3.149A23.8,23.8,0,0,1,195.512,274.691Z"/><rect class="p" width="7.885" height="22.669" rx="3.25" transform="translate(157.314 222.899)"/><path class="p" d="M161.512,247.27H161a5.4,5.4,0,0,1-5.388-5.389v-15.3A5.394,5.394,0,0,1,161,221.2h.511a5.4,5.4,0,0,1,5.389,5.388v15.3A5.4,5.4,0,0,1,161.512,247.27ZM161,224.6a1.988,1.988,0,0,0-1.985,1.985v15.3A1.988,1.988,0,0,0,161,243.866h.511a1.987,1.987,0,0,0,1.985-1.985v-15.3a1.987,1.987,0,0,0-1.985-1.985Z"/><path class="p" d="M235.979,237.069H221.934a2.836,2.836,0,1,1,0-5.672h14.045a2.836,2.836,0,1,1,0,5.672Z"/></g></svg>